<svg width="24" height="24" viewBox="0 0 24 24" fill="none" xmlns="http://www.w3.org/2000/svg">
<path d="M12 0C5.38028 0 0 5.38028 0 12C0 18.6197 5.38028 24 12 24C18.6197 24 24 18.6197 24 12C24 5.38028 18.6197 0 12 0ZM12 22.7887C6.05634 22.7887 1.21127 17.9437 1.21127 12C1.21127 6.05634 6.05634 1.21127 12 1.21127C17.9437 1.21127 22.7887 6.05634 22.7887 12C22.7887 17.9437 17.9437 22.7887 12 22.7887Z" fill="#0076FF"/>
<path d="M12.8451 11.9437L16.3662 8.42253C16.5915 8.19718 16.5915 7.80281 16.3662 7.57746C16.1408 7.35211 15.7465 7.35211 15.5211 7.57746L12 11.0986L8.47888 7.57746C8.25353 7.35211 7.85916 7.35211 7.63381 7.57746C7.40846 7.80281 7.40846 8.19718 7.63381 8.42253L11.1549 11.9437L7.63381 15.4366C7.40846 15.662 7.40846 16.0563 7.63381 16.2817C7.74649 16.3944 7.9155 16.4507 8.05635 16.4507C8.19719 16.4507 8.36621 16.3944 8.47888 16.2817L12 12.7606L15.5211 16.2817C15.6338 16.3944 15.8028 16.4507 15.9437 16.4507C16.0845 16.4507 16.2535 16.3944 16.3662 16.2817C16.5915 16.0563 16.5915 15.662 16.3662 15.4366L12.8451 11.9437Z" fill="#0076FF"/>
</svg>
