<svg width="32" height="32" viewBox="0 0 32 32" fill="none" xmlns="http://www.w3.org/2000/svg">
<rect width="32" height="32" rx="5" fill="#0076FF"/>
<path d="M26 6H6C4.89583 6 4 6.88184 4 7.96875V21.0938C4 22.1807 4.89583 23.0625 6 23.0625H14L13.3333 25.0312H10.3333C9.77917 25.0312 9.33333 25.4701 9.33333 26.0156C9.33333 26.5611 9.77917 27 10.3333 27H21.6667C22.2208 27 22.6667 26.5611 22.6667 26.0156C22.6667 25.4701 22.2208 25.0312 21.6667 25.0312H18.6667L18 23.0625H26C27.1042 23.0625 28 22.1807 28 21.0938V7.96875C28 6.88184 27.1042 6 26 6ZM25.3333 20.4375H6.66667V8.625H25.3333V20.4375Z" fill="white"/>
</svg>
