<svg width="20" height="20" viewBox="0 0 20 20" fill="none" xmlns="http://www.w3.org/2000/svg">
<path fill-rule="evenodd" clip-rule="evenodd" d="M18.75 10C18.75 12.3206 17.8281 14.5462 16.1872 16.1872C14.5462 17.8281 12.3206 18.75 10 18.75C7.67936 18.75 5.45376 17.8281 3.81282 16.1872C2.17187 14.5462 1.25 12.3206 1.25 10C1.25 7.67936 2.17187 5.45376 3.81282 3.81282C5.45376 2.17187 7.67936 1.25 10 1.25C12.3206 1.25 14.5462 2.17187 16.1872 3.81282C17.8281 5.45376 18.75 7.67936 18.75 10V10ZM0 10C0 12.6522 1.05357 15.1957 2.92893 17.0711C4.8043 18.9464 7.34784 20 10 20C12.6522 20 15.1957 18.9464 17.0711 17.0711C18.9464 15.1957 20 12.6522 20 10C20 7.34784 18.9464 4.8043 17.0711 2.92893C15.1957 1.05357 12.6522 0 10 0C7.34784 0 4.8043 1.05357 2.92893 2.92893C1.05357 4.8043 0 7.34784 0 10V10ZM14.375 9.375C14.5408 9.375 14.6997 9.44085 14.8169 9.55806C14.9342 9.67527 15 9.83424 15 10C15 10.1658 14.9342 10.3247 14.8169 10.4419C14.6997 10.5592 14.5408 10.625 14.375 10.625H7.13375L9.8175 13.3075C9.87561 13.3656 9.92171 13.4346 9.95315 13.5105C9.9846 13.5864 10.0008 13.6678 10.0008 13.75C10.0008 13.8322 9.9846 13.9136 9.95315 13.9895C9.92171 14.0654 9.87561 14.1344 9.8175 14.1925C9.75939 14.2506 9.6904 14.2967 9.61448 14.3282C9.53856 14.3596 9.45718 14.3758 9.375 14.3758C9.29282 14.3758 9.21144 14.3596 9.13552 14.3282C9.0596 14.2967 8.99061 14.2506 8.9325 14.1925L5.1825 10.4425C5.1243 10.3844 5.07812 10.3155 5.04661 10.2395C5.0151 10.1636 4.99888 10.0822 4.99888 10C4.99888 9.91779 5.0151 9.83639 5.04661 9.76046C5.07812 9.68453 5.1243 9.61556 5.1825 9.5575L8.9325 5.8075C8.99061 5.74939 9.0596 5.70329 9.13552 5.67185C9.21144 5.6404 9.29282 5.62421 9.375 5.62421C9.45718 5.62421 9.53856 5.6404 9.61448 5.67185C9.6904 5.70329 9.75939 5.74939 9.8175 5.8075C9.87561 5.86561 9.92171 5.9346 9.95315 6.01052C9.9846 6.08644 10.0008 6.16782 10.0008 6.25C10.0008 6.33218 9.9846 6.41356 9.95315 6.48948C9.92171 6.5654 9.87561 6.63439 9.8175 6.6925L7.13375 9.375H14.375Z" fill="#0076FF"/>
</svg>
