<svg width="14" height="14" viewBox="0 0 14 14" fill="none" xmlns="http://www.w3.org/2000/svg">
<g clip-path="url(#clip0_6503:31)">
<path fill-rule="evenodd" clip-rule="evenodd" d="M1.64931 0.447227C1.80242 0.294354 1.98626 0.175765 2.18866 0.099318C2.39106 0.0228708 2.6074 -0.00968883 2.82334 0.00379685C3.03927 0.0172825 3.24988 0.0765056 3.44119 0.177541C3.63251 0.278577 3.80017 0.419118 3.93306 0.589852L5.50369 2.6076C5.79156 2.97773 5.89306 3.45985 5.77931 3.91485L5.30069 5.8311C5.27594 5.93035 5.27728 6.03432 5.30457 6.1329C5.33186 6.23148 5.38418 6.32133 5.45644 6.39373L7.60632 8.5436C7.6788 8.61601 7.7688 8.66842 7.86755 8.69571C7.9663 8.723 8.07044 8.72426 8.16982 8.69935L10.0852 8.22073C10.3097 8.16459 10.5441 8.16023 10.7706 8.20798C10.997 8.25572 11.2097 8.35434 11.3924 8.49635L13.4102 10.0661C14.1356 10.6305 14.2021 11.7024 13.5528 12.3507L12.6481 13.2555C12.0006 13.903 11.0328 14.1874 10.1307 13.8697C7.82173 13.0573 5.7253 11.7355 3.99694 10.0022C2.26382 8.27412 0.941971 6.178 0.129439 3.86935C-0.187311 2.9681 0.0970641 1.99948 0.744564 1.35198L1.64931 0.447227Z" fill="white"/>
</g>
<defs>
<clipPath id="clip0_6503:31">
<rect width="14" height="14" fill="white"/>
</clipPath>
</defs>
</svg>
